<svg xmlns="http://www.w3.org/2000/svg" viewBox="0 0 51.48 42.52"><defs><style>.cls-1{fill:#989898;}</style></defs><title>Element 3</title><g id="Ebene_2" data-name="Ebene 2"><g id="Ebene_1-2" data-name="Ebene 1"><path class="cls-1" d="M.06,37.43A22,22,0,0,0,15.42,33a10.83,10.83,0,0,1-9.94-7.32l4.12-.19v-.23C4.2,23.11,1,18.9,1.58,14.82c1.13.36,2.27.74,3.42,1.08a4,4,0,0,0,1,0,10.8,10.8,0,0,1-4.5-8.6A7.92,7.92,0,0,1,3,2.2C8.8,8.88,16,12.77,25,13.35c-.09-.82-.21-1.55-.23-2.28A10.87,10.87,0,0,1,35.62,0,10.24,10.24,0,0,1,43,3a1,1,0,0,0,1.15.25c2-.73,4-1.48,6-2.22a11.67,11.67,0,0,1-4.37,5.4l.09.22L51.48,5a16.53,16.53,0,0,1-4.11,4.62,2.54,2.54,0,0,0-1.08,2.23,31.12,31.12,0,0,1-10,22.84,28.19,28.19,0,0,1-16.82,7.6A28.11,28.11,0,0,1,3.53,39.78C2.31,39.17,1.17,38.39,0,37.69Z"/></g></g></svg>