<svg xmlns="http://www.w3.org/2000/svg" viewBox="0 0 103.48 103.95"><defs><style>.cls-1{fill:#7ac0bc;}</style></defs><g id="Ebene_2" data-name="Ebene 2"><g id="social_feed_" data-name="social feed +"><path class="cls-1" d="M31.4,101.06V75.29a3,3,0,0,0-3.19-2.88h-25A3,3,0,0,1,0,69.53V34.42a3,3,0,0,1,3.19-2.88h25a3,3,0,0,0,3.19-2.89V2.88A3,3,0,0,1,34.58,0H68.9a3,3,0,0,1,3.18,2.88V28.65a3,3,0,0,0,3.19,2.89h25a3,3,0,0,1,3.19,2.88V69.53a3,3,0,0,1-3.19,2.88h-25a3,3,0,0,0-3.19,2.88v25.77A3,3,0,0,1,68.9,104H34.58A3,3,0,0,1,31.4,101.06Z"/></g></g></svg>