<svg xmlns="http://www.w3.org/2000/svg" viewBox="0 0 500 430.28"><defs><style>.cls-1{fill:#333a46;}.cls-2{fill:#7ac0bc;}.cls-3{fill:#fff;}</style></defs><g id="Ebene_2" data-name="Ebene 2"><g id="social_feed_" data-name="social feed +"><polygon class="cls-1" points="405.52 364.46 0 364.46 94.48 0 500 0 405.52 364.46"/><path class="cls-1" d="M49.43,390.62A18.91,18.91,0,0,1,54.89,394l-2.6,4.29a20.54,20.54,0,0,0-4.56-2.51,12.67,12.67,0,0,0-4.56-.82,7.44,7.44,0,0,0-4.73,1.37,5,5,0,0,0-.1,7.44,17.92,17.92,0,0,0,5.89,2.59q5.87,1.62,8.76,4.44a10.22,10.22,0,0,1,2.9,7.69q0,5.78-4,8.81a15.88,15.88,0,0,1-9.82,3,18.29,18.29,0,0,1-13.26-5.1L32,421a14.93,14.93,0,0,0,9.86,3.78,8.71,8.71,0,0,0,5.5-1.59,5.22,5.22,0,0,0,2-4.33,6.29,6.29,0,0,0-.73-3.22,6.17,6.17,0,0,0-2.54-2.15,32.6,32.6,0,0,0-5.26-2q-5.59-1.62-8.09-4.36a10,10,0,0,1-2.5-7A9.79,9.79,0,0,1,32,394.73a10.68,10.68,0,0,1,4.52-3.85,15.1,15.1,0,0,1,6.5-1.37A17.75,17.75,0,0,1,49.43,390.62Z"/><path class="cls-1" d="M87.56,395q4.09,5.47,4.09,14.87a28.46,28.46,0,0,1-1.86,10.69,15.92,15.92,0,0,1-5.4,7.18A13.94,13.94,0,0,1,76,430.28a13.6,13.6,0,0,1-11.52-5.47q-4.13-5.47-4.13-14.88a28.5,28.5,0,0,1,1.86-10.69,16.1,16.1,0,0,1,5.4-7.18,14,14,0,0,1,8.46-2.55A13.52,13.52,0,0,1,87.56,395ZM66.94,409.93q0,14.88,9.06,14.88t9.06-14.95q0-14.88-9-14.87T66.94,409.93Z"/><path class="cls-1" d="M118.62,390.51a15.52,15.52,0,0,1,5,3.22L120.69,398a14.44,14.44,0,0,0-3.63-2.18,10.45,10.45,0,0,0-3.9-.71,7.4,7.4,0,0,0-6.62,3.78q-2.37,3.76-2.37,11.17T106.5,421a7.54,7.54,0,0,0,6.66,3.51,10,10,0,0,0,3.8-.7,18.69,18.69,0,0,0,3.86-2.26l2.8,4.44a15.69,15.69,0,0,1-10.72,4.29A13.38,13.38,0,0,1,101.68,425q-4.11-5.34-4.1-14.73a29.27,29.27,0,0,1,1.86-10.88,16.54,16.54,0,0,1,5.3-7.25,13.13,13.13,0,0,1,8.16-2.59A15.73,15.73,0,0,1,118.62,390.51Z"/><path class="cls-1" d="M136.41,373a4.8,4.8,0,0,1,1.2,3.33,4.65,4.65,0,0,1-1.2,3.29,4.09,4.09,0,0,1-3.13,1.3,4,4,0,0,1-3.07-1.3,4.65,4.65,0,0,1-1.2-3.29,4.8,4.8,0,0,1,1.2-3.33,3.93,3.93,0,0,1,3.07-1.33A4,4,0,0,1,136.41,373Zm0,56.39h-6.13v-39h6.13Z"/><path class="cls-1" d="M171.77,423.81a4.57,4.57,0,0,0,2.2,1.74l-1.4,4.73a8.73,8.73,0,0,1-4.4-1.7,7.87,7.87,0,0,1-2.46-4.14,11.45,11.45,0,0,1-10.46,5.84,10.59,10.59,0,0,1-8.19-3.25,12.06,12.06,0,0,1-3-8.51q0-6.22,4-9.55t11.42-3.33h5.39v-2.88q0-4.15-1.8-5.92t-5.52-1.78a28.23,28.23,0,0,0-9.46,2.07l-1.53-5a32.35,32.35,0,0,1,12.12-2.66q6.19,0,9.26,3.37t3.06,9.58v17.83A6.65,6.65,0,0,0,171.77,423.81Zm-6.86-4.7v-8.95h-4.59q-9.73,0-9.73,8a7.83,7.83,0,0,0,1.53,5.25,5.66,5.66,0,0,0,4.53,1.78Q161.92,425.18,164.91,419.11Z"/><path class="cls-1" d="M183.59,428a9.35,9.35,0,0,1-2-6.33v-47l6.12-.81v47.65a4.35,4.35,0,0,0,.5,2.37,1.92,1.92,0,0,0,1.7.74,5.64,5.64,0,0,0,2.27-.44l1.6,4.73a9.21,9.21,0,0,1-4.87,1.33A6.75,6.75,0,0,1,183.59,428Z"/><path class="cls-1" d="M223.72,380.74a6.35,6.35,0,0,0-1.2,4.26v5.4h8.53l-.67,5.25h-7.86V429.4h-6.13V395.65h-6.26V390.4h6.26v-5.33a11.32,11.32,0,0,1,2.9-8.1q2.9-3.08,8.09-3.07a17.62,17.62,0,0,1,4.3.48,22.79,22.79,0,0,1,4.09,1.51l-1.93,5a13.78,13.78,0,0,0-6.12-1.48A5.09,5.09,0,0,0,223.72,380.74Z"/><path class="cls-1" d="M262.15,412.23H239.77q.4,6.43,2.93,9.47a8.12,8.12,0,0,0,6.53,3,13,13,0,0,0,4.66-.81,18.18,18.18,0,0,0,4.46-2.59L261,425.4a18.24,18.24,0,0,1-12.26,4.88q-7.32,0-11.42-5.32t-4.1-14.66A30.39,30.39,0,0,1,235,399.54a16.78,16.78,0,0,1,5.06-7.37,12,12,0,0,1,7.76-2.66q7,0,10.72,5.11t3.73,14.13C262.28,409.89,262.24,411,262.15,412.23Zm-5.93-5.48q0-5.78-2.06-8.8a7,7,0,0,0-6.2-3q-7.53,0-8.19,12.29h16.45Z"/><path class="cls-1" d="M297.11,412.23H274.73q.4,6.43,2.93,9.47a8.13,8.13,0,0,0,6.53,3,13,13,0,0,0,4.66-.81,18.41,18.41,0,0,0,4.47-2.59L296,425.4a18.24,18.24,0,0,1-12.26,4.88q-7.32,0-11.42-5.32t-4.09-14.66A30.39,30.39,0,0,1,270,399.54a17,17,0,0,1,5.06-7.37,12,12,0,0,1,7.76-2.66q7,0,10.73,5.11t3.73,14.13C297.25,409.89,297.2,411,297.11,412.23Zm-5.93-5.48c0-3.85-.68-6.78-2.06-8.8a7,7,0,0,0-6.19-3q-7.53,0-8.2,12.29h16.45Z"/><path class="cls-1" d="M332.88,374.71V429.4h-5.4l-.6-5.41a13.34,13.34,0,0,1-4.33,4.63,10.49,10.49,0,0,1-5.79,1.66,11,11,0,0,1-9.76-5.47q-3.5-5.47-3.5-14.73a31.54,31.54,0,0,1,1.67-10.65,16.53,16.53,0,0,1,4.79-7.29,11.07,11.07,0,0,1,7.33-2.63q5.4,0,9.46,4.81V373.9Zm-10,48.73a15.92,15.92,0,0,0,3.87-4.33V400a13.91,13.91,0,0,0-3.7-3.81,7.81,7.81,0,0,0-4.43-1.3,7,7,0,0,0-6.29,3.78q-2.24,3.76-2.23,11.24t2.06,11.25a6.47,6.47,0,0,0,5.93,3.7A8,8,0,0,0,322.88,423.44Z"/><path class="cls-1" d="M375.56,400.31h10.06v9H375.56v11.55h-8.72V409.34H356.72v-9h10.12V388.77h8.72Z"/><path class="cls-2" d="M269.19,205.74H111.38A15.4,15.4,0,0,0,96,221.12v58.66a15.4,15.4,0,0,0,15.38,15.39h9v24.15a4.39,4.39,0,0,0,2.71,4.05,4.28,4.28,0,0,0,1.68.34,4.39,4.39,0,0,0,3.1-1.29l41.06-27.25H269.19a15.41,15.41,0,0,0,15.39-15.39V221.12a15.4,15.4,0,0,0-15.39-15.38Zm0,80.66H167.11a4.36,4.36,0,0,0-3,1.14l0,0-.16.14-34.84,21v-18a2.62,2.62,0,0,0,0-.41,4.37,4.37,0,0,0-4.36-4H111.38a6.63,6.63,0,0,1-6.61-6.62V221.12a6.62,6.62,0,0,1,6.61-6.61H269.19a6.62,6.62,0,0,1,6.62,6.61v58.66a6.63,6.63,0,0,1-6.62,6.62Z"/><path class="cls-2" d="M245.71,233.87H134.52a4.39,4.39,0,0,0,0,8.77H245.71a4.39,4.39,0,1,0,0-8.77Z"/><path class="cls-2" d="M215.21,259H134.52a4.39,4.39,0,0,0,0,8.77h80.69a4.39,4.39,0,0,0,0-8.77Z"/><path class="cls-3" d="M187.81,100.37a15.4,15.4,0,0,0-15.39,15.38v58.67a15.41,15.41,0,0,0,15.39,15.38H288.08l41.06,27.26a4.39,4.39,0,0,0,7.49-3.11V189.8h9A15.4,15.4,0,0,0,361,174.42V115.75a15.4,15.4,0,0,0-15.38-15.38Zm0,80.66a6.63,6.63,0,0,1-6.62-6.61V115.75a6.63,6.63,0,0,1,6.62-6.61H345.62a6.62,6.62,0,0,1,6.61,6.61v58.67a6.62,6.62,0,0,1-6.61,6.61H332.24a4.38,4.38,0,0,0-4.36,4,2.49,2.49,0,0,0,0,.4v18l-34.84-21-.16-.15,0,0a4.36,4.36,0,0,0-2.95-1.14Z"/><path class="cls-3" d="M211.29,128.5a4.39,4.39,0,1,0,0,8.77H322.48a4.39,4.39,0,0,0,0-8.77Z"/><path class="cls-3" d="M241.79,153.61a4.39,4.39,0,0,0,0,8.77h80.69a4.39,4.39,0,0,0,0-8.77Z"/><path class="cls-2" d="M344.11,150.9a8.72,8.72,0,0,1-8.86-8.55v-23H312.71a8.72,8.72,0,0,1-8.86-8.55V75.7a8.73,8.73,0,0,1,8.86-8.55h22.54v-23a8.71,8.71,0,0,1,8.86-8.55h34.31a8.72,8.72,0,0,1,8.86,8.55v23h22.53a8.72,8.72,0,0,1,8.86,8.55v35.11a8.71,8.71,0,0,1-8.86,8.55H387.28v23a8.73,8.73,0,0,1-8.86,8.55Z"/><path class="cls-1" d="M378.42,41.28a3.06,3.06,0,0,1,3.19,2.89V69.94a3,3,0,0,0,3.18,2.88h25A3,3,0,0,1,413,75.7v35.11a3,3,0,0,1-3.19,2.88h-25a3,3,0,0,0-3.18,2.89v25.77a3,3,0,0,1-3.19,2.88H344.11a3,3,0,0,1-3.19-2.88V116.58a3,3,0,0,0-3.19-2.89h-25a3,3,0,0,1-3.19-2.88V75.7a3,3,0,0,1,3.19-2.88h25a3,3,0,0,0,3.19-2.88V44.17a3,3,0,0,1,3.19-2.89h34.31m0-11.33H344.11a14.4,14.4,0,0,0-14.53,14.22V61.48H312.71A14.4,14.4,0,0,0,298.18,75.7v35.11A14.4,14.4,0,0,0,312.71,125h16.87v17.32a14.4,14.4,0,0,0,14.53,14.22h34.31a14.39,14.39,0,0,0,14.52-14.22V125h16.87a14.4,14.4,0,0,0,14.53-14.22V75.7a14.4,14.4,0,0,0-14.53-14.22H392.94V44.17A14.39,14.39,0,0,0,378.42,30Z"/></g></g></svg>