<svg xmlns="http://www.w3.org/2000/svg" viewBox="0 0 22.99 42.52"><defs><style>.cls-1{fill:#989898;}</style></defs><title>Element 1</title><g id="Ebene_2" data-name="Ebene 2"><g id="Ebene_1-2" data-name="Ebene 1"><path class="cls-1" d="M6.41,24H1.13C.3,24,0,23.71,0,22.87V16.43c0-.84.32-1.15,1.17-1.15H6.41v-.39c0-1.61,0-3.23,0-4.84A11,11,0,0,1,7.88,4.59,8.92,8.92,0,0,1,13.7.35,12.8,12.8,0,0,1,17,0h4.87c.77,0,1.1.33,1.1,1.11v6c0,.78-.32,1.09-1.1,1.09-1.43,0-2.86,0-4.28.07a2,2,0,0,0-1.89,1,3.32,3.32,0,0,0-.3,1.23c0,1.53,0,3,0,4.57a1.19,1.19,0,0,0,0,.14h6.15c.84,0,1.15.31,1.15,1.16q0,3.21,0,6.44c0,.84-.28,1.13-1.13,1.13h-6.2V41.24c0,.11,0,.21,0,.32a.91.91,0,0,1-1,1h-7a.91.91,0,0,1-1-1V24Z"/></g></g></svg>