<svg xmlns="http://www.w3.org/2000/svg" viewBox="0 0 42.52 42.52"><defs><style>.cls-1{fill:#989898;}</style></defs><title>Element 2</title><g id="Ebene_2" data-name="Ebene 2"><g id="Ebene_1-2" data-name="Ebene 1"><path class="cls-1" d="M10.63,0H31.89L33,.21a11.73,11.73,0,0,1,9.49,11.54q0,9.51,0,19a12,12,0,0,1-.33,2.79,11.65,11.65,0,0,1-10.08,8.89,13.31,13.31,0,0,1-1.41.07H11.83a11.39,11.39,0,0,1-4.82-1A11.59,11.59,0,0,1,.32,33.46C.19,32.94.11,32.41,0,31.89V10.63c0-.12.07-.24.09-.36A11.25,11.25,0,0,1,1,7a11.62,11.62,0,0,1,8-6.63C9.58.19,10.11.11,10.63,0ZM3.81,21.26h0c0,3.09,0,6.17,0,9.26a8.68,8.68,0,0,0,.4,2.77,8,8,0,0,0,7.73,5.45c6.22,0,12.45,0,18.68,0a9.43,9.43,0,0,0,2.69-.41,7.92,7.92,0,0,0,5.45-7.7c0-6.23,0-12.46,0-18.68a9.43,9.43,0,0,0-.41-2.69,7.92,7.92,0,0,0-7.7-5.45c-6.23,0-12.46,0-18.68,0a7.8,7.8,0,0,0-3.8.87,7.57,7.57,0,0,0-4.29,6.68C3.73,14.64,3.81,18,3.81,21.26Z"/><path class="cls-1" d="M32.22,21.26a11,11,0,1,1-10.95-11A11,11,0,0,1,32.22,21.26Zm-3.8,0a7.16,7.16,0,1,0-7.18,7.16A7.14,7.14,0,0,0,28.42,21.26Z"/><path class="cls-1" d="M32.66,12.63A2.78,2.78,0,0,1,29.9,9.85a2.78,2.78,0,0,1,5.55,0A2.77,2.77,0,0,1,32.66,12.63Z"/></g></g></svg>