<svg xmlns="http://www.w3.org/2000/svg" viewBox="0 0 32 17.59"><defs><style>.cls-1{fill:#7abfbc;}</style></defs><title>Element 1</title><g id="Ebene_2" data-name="Ebene 2"><g id="v2_pdir" data-name="v2 pdir"><path class="cls-1" d="M3.77,17.59H0V3.79H3.09l.23.68h.11a2.62,2.62,0,0,1,2.3-.92c2.76,0,3.5,1.79,3.5,5.39s-.72,5.83-3.72,5.83a2.44,2.44,0,0,1-1.65-.49H3.77ZM4.59,6.72A1.54,1.54,0,0,0,3.73,7v4.63a1.83,1.83,0,0,0,.89.21c.83,0,.85-.9.85-2.62C5.46,7.67,5.41,6.72,4.59,6.72Z"/><path class="cls-1" d="M15.67,13.6h-.1a2.56,2.56,0,0,1-2.27,1.14c-2.8,0-3.64-2.09-3.64-5.69s1.26-5.53,3.56-5.53a2.71,2.71,0,0,1,1.85.56V.16H18.8V11.23c0,.56.21.72.83.72l-.34,2.71c-.4,0-.93.09-1.5.09A2,2,0,0,1,15.67,13.6Zm-1.4-1.81a1.83,1.83,0,0,0,.89-.21V7a1.66,1.66,0,0,0-.88-.27c-.8,0-.87,1-.87,2.49C13.41,10.89,13.43,11.79,14.27,11.79Z"/><path class="cls-1" d="M22.41,0c1.43,0,2,.56,2,1.75s-.56,1.7-2,1.7-2-.54-2-1.7S20.93,0,22.41,0ZM20.55,14.52V3.9h3.7V14.52Z"/><path class="cls-1" d="M29.39,14.52H25.67V3.79h3.27l.21.65h.1c.69-.78,1.21-.92,2.75-.92l-.16,3.59h-1c-1.17,0-1.44.25-1.44,1.4v6Z"/></g></g></svg>